<svg xmlns="http://www.w3.org/2000/svg" width="1200" height="630" viewBox="0 0 1200 630">
  <defs>
    <linearGradient id="bg" x1="0" y1="0" x2="1" y2="1">
      <stop offset="0%" stop-color="#0B1628"/>
      <stop offset="100%" stop-color="#0F2240"/>
    </linearGradient>
    <linearGradient id="accent" x1="0" y1="0" x2="1" y2="0">
      <stop offset="0%" stop-color="#F5C842"/>
      <stop offset="100%" stop-color="#F0A820"/>
    </linearGradient>
    <linearGradient id="dot-fade" x1="0" y1="0" x2="1" y2="1">
      <stop offset="0%" stop-color="#FFFFFF" stop-opacity="0.06"/>
      <stop offset="100%" stop-color="#FFFFFF" stop-opacity="0.01"/>
    </linearGradient>
  </defs>

  <!-- Background -->
  <rect width="1200" height="630" fill="url(#bg)"/>

  <!-- Subtle dot grid pattern -->
  <g fill="url(#dot-fade)">
    <g opacity="1">
      <!-- Row 1 -->
      <circle cx="60" cy="60" r="1.5"/><circle cx="120" cy="60" r="1.5"/><circle cx="180" cy="60" r="1.5"/>
      <circle cx="240" cy="60" r="1.5"/><circle cx="300" cy="60" r="1.5"/><circle cx="360" cy="60" r="1.5"/>
      <circle cx="420" cy="60" r="1.5"/><circle cx="480" cy="60" r="1.5"/><circle cx="540" cy="60" r="1.5"/>
      <circle cx="600" cy="60" r="1.5"/><circle cx="660" cy="60" r="1.5"/><circle cx="720" cy="60" r="1.5"/>
      <circle cx="780" cy="60" r="1.5"/><circle cx="840" cy="60" r="1.5"/><circle cx="900" cy="60" r="1.5"/>
      <circle cx="960" cy="60" r="1.5"/><circle cx="1020" cy="60" r="1.5"/><circle cx="1080" cy="60" r="1.5"/>
      <circle cx="1140" cy="60" r="1.5"/>
      <!-- Row 2 -->
      <circle cx="60" cy="120" r="1.5"/><circle cx="120" cy="120" r="1.5"/><circle cx="180" cy="120" r="1.5"/>
      <circle cx="240" cy="120" r="1.5"/><circle cx="300" cy="120" r="1.5"/><circle cx="360" cy="120" r="1.5"/>
      <circle cx="420" cy="120" r="1.5"/><circle cx="480" cy="120" r="1.5"/><circle cx="540" cy="120" r="1.5"/>
      <circle cx="600" cy="120" r="1.5"/><circle cx="660" cy="120" r="1.5"/><circle cx="720" cy="120" r="1.5"/>
      <circle cx="780" cy="120" r="1.5"/><circle cx="840" cy="120" r="1.5"/><circle cx="900" cy="120" r="1.5"/>
      <circle cx="960" cy="120" r="1.5"/><circle cx="1020" cy="120" r="1.5"/><circle cx="1080" cy="120" r="1.5"/>
      <circle cx="1140" cy="120" r="1.5"/>
      <!-- Row 3 -->
      <circle cx="60" cy="180" r="1.5"/><circle cx="120" cy="180" r="1.5"/><circle cx="180" cy="180" r="1.5"/>
      <circle cx="240" cy="180" r="1.5"/><circle cx="300" cy="180" r="1.5"/><circle cx="360" cy="180" r="1.5"/>
      <circle cx="420" cy="180" r="1.5"/><circle cx="480" cy="180" r="1.5"/><circle cx="540" cy="180" r="1.5"/>
      <circle cx="600" cy="180" r="1.5"/><circle cx="660" cy="180" r="1.5"/><circle cx="720" cy="180" r="1.5"/>
      <circle cx="780" cy="180" r="1.5"/><circle cx="840" cy="180" r="1.5"/><circle cx="900" cy="180" r="1.5"/>
      <circle cx="960" cy="180" r="1.5"/><circle cx="1020" cy="180" r="1.5"/><circle cx="1080" cy="180" r="1.5"/>
      <circle cx="1140" cy="180" r="1.5"/>
      <!-- Row 4 -->
      <circle cx="60" cy="240" r="1.5"/><circle cx="120" cy="240" r="1.5"/><circle cx="180" cy="240" r="1.5"/>
      <circle cx="240" cy="240" r="1.5"/><circle cx="300" cy="240" r="1.5"/><circle cx="360" cy="240" r="1.5"/>
      <circle cx="420" cy="240" r="1.5"/><circle cx="480" cy="240" r="1.5"/><circle cx="540" cy="240" r="1.5"/>
      <circle cx="600" cy="240" r="1.5"/><circle cx="660" cy="240" r="1.5"/><circle cx="720" cy="240" r="1.5"/>
      <circle cx="780" cy="240" r="1.5"/><circle cx="840" cy="240" r="1.5"/><circle cx="900" cy="240" r="1.5"/>
      <circle cx="960" cy="240" r="1.5"/><circle cx="1020" cy="240" r="1.5"/><circle cx="1080" cy="240" r="1.5"/>
      <circle cx="1140" cy="240" r="1.5"/>
      <!-- Row 5 -->
      <circle cx="60" cy="300" r="1.5"/><circle cx="120" cy="300" r="1.5"/><circle cx="180" cy="300" r="1.5"/>
      <circle cx="240" cy="300" r="1.5"/><circle cx="300" cy="300" r="1.5"/><circle cx="360" cy="300" r="1.5"/>
      <circle cx="420" cy="300" r="1.5"/><circle cx="480" cy="300" r="1.5"/><circle cx="540" cy="300" r="1.5"/>
      <circle cx="600" cy="300" r="1.5"/><circle cx="660" cy="300" r="1.5"/><circle cx="720" cy="300" r="1.5"/>
      <circle cx="780" cy="300" r="1.5"/><circle cx="840" cy="300" r="1.5"/><circle cx="900" cy="300" r="1.5"/>
      <circle cx="960" cy="300" r="1.5"/><circle cx="1020" cy="300" r="1.5"/><circle cx="1080" cy="300" r="1.5"/>
      <circle cx="1140" cy="300" r="1.5"/>
      <!-- Row 6 -->
      <circle cx="60" cy="360" r="1.5"/><circle cx="120" cy="360" r="1.5"/><circle cx="180" cy="360" r="1.5"/>
      <circle cx="240" cy="360" r="1.5"/><circle cx="300" cy="360" r="1.5"/><circle cx="360" cy="360" r="1.5"/>
      <circle cx="420" cy="360" r="1.5"/><circle cx="480" cy="360" r="1.5"/><circle cx="540" cy="360" r="1.5"/>
      <circle cx="600" cy="360" r="1.5"/><circle cx="660" cy="360" r="1.5"/><circle cx="720" cy="360" r="1.5"/>
      <circle cx="780" cy="360" r="1.5"/><circle cx="840" cy="360" r="1.5"/><circle cx="900" cy="360" r="1.5"/>
      <circle cx="960" cy="360" r="1.5"/><circle cx="1020" cy="360" r="1.5"/><circle cx="1080" cy="360" r="1.5"/>
      <circle cx="1140" cy="360" r="1.5"/>
      <!-- Row 7 -->
      <circle cx="60" cy="420" r="1.5"/><circle cx="120" cy="420" r="1.5"/><circle cx="180" cy="420" r="1.5"/>
      <circle cx="240" cy="420" r="1.5"/><circle cx="300" cy="420" r="1.5"/><circle cx="360" cy="420" r="1.5"/>
      <circle cx="420" cy="420" r="1.5"/><circle cx="480" cy="420" r="1.5"/><circle cx="540" cy="420" r="1.5"/>
      <circle cx="600" cy="420" r="1.5"/><circle cx="660" cy="420" r="1.5"/><circle cx="720" cy="420" r="1.5"/>
      <circle cx="780" cy="420" r="1.5"/><circle cx="840" cy="420" r="1.5"/><circle cx="900" cy="420" r="1.5"/>
      <circle cx="960" cy="420" r="1.5"/><circle cx="1020" cy="420" r="1.5"/><circle cx="1080" cy="420" r="1.5"/>
      <circle cx="1140" cy="420" r="1.5"/>
      <!-- Row 8 -->
      <circle cx="60" cy="480" r="1.5"/><circle cx="120" cy="480" r="1.5"/><circle cx="180" cy="480" r="1.5"/>
      <circle cx="240" cy="480" r="1.5"/><circle cx="300" cy="480" r="1.5"/><circle cx="360" cy="480" r="1.5"/>
      <circle cx="420" cy="480" r="1.5"/><circle cx="480" cy="480" r="1.5"/><circle cx="540" cy="480" r="1.5"/>
      <circle cx="600" cy="480" r="1.5"/><circle cx="660" cy="480" r="1.5"/><circle cx="720" cy="480" r="1.5"/>
      <circle cx="780" cy="480" r="1.5"/><circle cx="840" cy="480" r="1.5"/><circle cx="900" cy="480" r="1.5"/>
      <circle cx="960" cy="480" r="1.5"/><circle cx="1020" cy="480" r="1.5"/><circle cx="1080" cy="480" r="1.5"/>
      <circle cx="1140" cy="480" r="1.5"/>
      <!-- Row 9 -->
      <circle cx="60" cy="540" r="1.5"/><circle cx="120" cy="540" r="1.5"/><circle cx="180" cy="540" r="1.5"/>
      <circle cx="240" cy="540" r="1.5"/><circle cx="300" cy="540" r="1.5"/><circle cx="360" cy="540" r="1.5"/>
      <circle cx="420" cy="540" r="1.5"/><circle cx="480" cy="540" r="1.5"/><circle cx="540" cy="540" r="1.5"/>
      <circle cx="600" cy="540" r="1.5"/><circle cx="660" cy="540" r="1.5"/><circle cx="720" cy="540" r="1.5"/>
      <circle cx="780" cy="540" r="1.5"/><circle cx="840" cy="540" r="1.5"/><circle cx="900" cy="540" r="1.5"/>
      <circle cx="960" cy="540" r="1.5"/><circle cx="1020" cy="540" r="1.5"/><circle cx="1080" cy="540" r="1.5"/>
      <circle cx="1140" cy="540" r="1.5"/>
    </g>
  </g>

  <!-- Decorative circle (top right) -->
  <circle cx="1050" cy="120" r="280" fill="none" stroke="#F5C842" stroke-width="0.5" opacity="0.12"/>
  <circle cx="1050" cy="120" r="200" fill="none" stroke="#F5C842" stroke-width="0.5" opacity="0.08"/>

  <!-- Gold accent bar (left edge) -->
  <rect x="80" y="180" width="4" height="260" rx="2" fill="url(#accent)"/>

  <!-- Logo wordmark -->
  <!-- "My" in gold -->
  <text
    x="112"
    y="268"
    font-family="Georgia, 'Times New Roman', serif"
    font-size="112"
    font-weight="700"
    fill="#F5C842"
    letter-spacing="-2"
  >My</text>

  <!-- "Scholar" in white -->
  <text
    x="266"
    y="268"
    font-family="Georgia, 'Times New Roman', serif"
    font-size="112"
    font-weight="700"
    fill="#FFFFFF"
    letter-spacing="-2"
  >Scholar</text>

  <!-- Tagline -->
  <text
    x="112"
    y="340"
    font-family="'Helvetica Neue', Arial, sans-serif"
    font-size="28"
    font-weight="400"
    fill="#FFFFFF"
    opacity="0.6"
    letter-spacing="1.5"
  >FIND YOUR SCHOLARSHIP. FUND YOUR FUTURE.</text>

  <!-- Bottom bar + domain -->
  <rect x="0" y="560" width="1200" height="70" fill="#000000" opacity="0.25"/>
  <text
    x="112"
    y="603"
    font-family="'Helvetica Neue', Arial, sans-serif"
    font-size="22"
    font-weight="400"
    fill="#FFFFFF"
    opacity="0.5"
    letter-spacing="0.5"
  >myscholar.my</text>

  <!-- Malaysia flag colours subtle badge -->
  <rect x="1060" y="575" width="14" height="10" rx="1" fill="#CC0001"/>
  <rect x="1074" y="575" width="14" height="10" rx="1" fill="#FFFFFF"/>
  <rect x="1088" y="575" width="14" height="10" rx="1" fill="#CC0001"/>
  <text
    x="1108"
    y="584"
    font-family="'Helvetica Neue', Arial, sans-serif"
    font-size="18"
    fill="#FFFFFF"
    opacity="0.4"
  >Malaysia</text>

</svg>
